<?xml version="1.0" encoding="UTF-8"?>
<svg xmlns="http://www.w3.org/2000/svg" width="39" height="47" viewBox="0 0 39 47" fill="none">
  <g id="Layer_1" clip-path="url(#clip0_519_3760)">
    <g id="uVzOeK.tif">
      <g id="Group">
        <path id="Vector" d="M21.7784 27.7197C21.9087 27.7918 22.0149 27.8501 22.1199 27.9096C23.3613 28.6072 23.404 30.3786 22.196 31.1346C21.6307 31.4891 20.9927 31.576 20.3454 31.5852C19.2516 31.6012 18.1567 31.5852 17.063 31.5943C16.8184 31.5966 16.7261 31.5246 16.7261 31.2695C16.7342 29.0235 16.7342 26.7774 16.7261 24.5313C16.7261 24.2877 16.7907 24.1974 17.0491 24.2008C18.1337 24.2134 19.2193 24.1791 20.3027 24.2202C20.7423 24.2362 21.2084 24.33 21.6064 24.5084C22.849 25.0642 23.0244 26.6939 21.9653 27.5539C21.9087 27.5996 21.8545 27.6511 21.7761 27.7209L21.7784 27.7197ZM19.5135 30.1076C19.7916 30.1076 20.0708 30.1213 20.3477 30.1019C20.5554 30.087 20.7677 30.0493 20.9638 29.9818C21.258 29.88 21.3965 29.641 21.4011 29.3391C21.4057 29.0349 21.2603 28.805 20.9707 28.6929C20.8127 28.6312 20.6384 28.5809 20.47 28.5763C19.847 28.5591 19.2228 28.5637 18.5998 28.5569C18.4463 28.5557 18.3713 28.6106 18.3736 28.773C18.3794 29.1435 18.3817 29.5152 18.3736 29.8857C18.369 30.0699 18.4602 30.111 18.6205 30.1076C18.9182 30.1019 19.2159 30.1065 19.5135 30.1065V30.1076ZM19.3762 25.6429C19.3762 25.6509 19.3751 25.6589 19.3739 25.6681C19.1051 25.6681 18.8363 25.6566 18.5698 25.6761C18.5017 25.6806 18.3886 25.7847 18.3863 25.8476C18.369 26.2273 18.3713 26.6081 18.384 26.9878C18.3863 27.0484 18.4717 27.1582 18.5167 27.1571C19.157 27.1422 19.8008 27.1479 20.4342 27.0736C20.815 27.029 20.9869 26.7351 20.9765 26.3771C20.9673 26.042 20.7781 25.7973 20.4031 25.7298C20.0673 25.6692 19.7189 25.6703 19.3774 25.644L19.3762 25.6429Z" fill="#B5B8BA"></path>
        <path id="Vector_2" d="M37.2133 28.6064C37.2133 27.5715 37.2133 26.6211 37.2133 25.6708C37.2133 25.2716 37.2191 24.8714 37.2122 24.4722C37.2087 24.2801 37.2779 24.1966 37.481 24.2035C37.8456 24.2149 38.2113 24.2218 38.5748 24.2012C38.8401 24.1863 38.8955 24.295 38.8943 24.534C38.8863 26.5033 38.8897 28.4738 38.8897 30.4431C38.8897 30.729 38.8782 31.0149 38.8932 31.2997C38.9047 31.5284 38.8067 31.6142 38.5886 31.5913C38.5794 31.5913 38.569 31.5902 38.5598 31.5913C37.7752 31.7308 37.2652 31.4335 36.8084 30.7656C35.9742 29.5476 35.0258 28.4052 34.1247 27.2318C34.0843 27.1803 34.0394 27.1323 33.9482 27.0271C33.9413 27.1849 33.9332 27.2821 33.9332 27.3782C33.9332 28.6625 33.9263 29.9468 33.9378 31.2322C33.9401 31.5021 33.8594 31.6107 33.579 31.5947C33.2536 31.5764 32.926 31.5764 32.6006 31.5947C32.3306 31.6096 32.2545 31.5032 32.2557 31.2471C32.2649 29.8679 32.2591 28.4875 32.2591 27.1083C32.2591 26.2517 32.2672 25.3951 32.2545 24.5397C32.251 24.279 32.333 24.1841 32.6006 24.2012C32.9929 24.2252 33.4429 24.1029 33.7625 24.2572C34.082 24.4105 34.2782 24.8233 34.517 25.1321C35.3512 26.2128 36.1796 27.297 37.0114 28.3789C37.0564 28.4372 37.1095 28.4898 37.2145 28.6076L37.2133 28.6064Z" fill="#B5B8BA"></path>
        <path id="Vector_3" d="M13.7289 28.9688C14.3139 29.8231 14.8884 30.6591 15.4999 31.5523C15.3349 31.5706 15.2369 31.59 15.1388 31.5912C14.7165 31.5946 14.2942 31.5832 13.872 31.5969C13.6562 31.6038 13.5178 31.5317 13.3978 31.351C12.9824 30.7232 12.5475 30.1068 12.1298 29.4789C12.0179 29.3108 11.8887 29.2284 11.681 29.2433C11.4618 29.2582 11.2391 29.2548 11.0187 29.2456C10.8168 29.2365 10.7488 29.3245 10.7511 29.5166C10.758 30.0873 10.7395 30.6591 10.758 31.2286C10.7684 31.5237 10.6576 31.614 10.3726 31.598C10.0381 31.5786 9.70116 31.5832 9.36542 31.5969C9.12428 31.6072 9.04352 31.5088 9.04698 31.279C9.05506 30.6317 9.04929 29.9855 9.04929 29.3382C9.04929 27.7589 9.04929 26.1795 9.04929 24.6002C9.04929 24.2091 9.0516 24.2091 9.45079 24.2091C10.4776 24.2091 11.5045 24.1965 12.5313 24.2159C12.8821 24.2228 13.2409 24.272 13.5789 24.3646C14.5896 24.6437 15.1596 25.339 15.2669 26.3694C15.3799 27.449 14.9138 28.3524 14.0023 28.8247C13.9193 28.8682 13.8374 28.9128 13.7266 28.9711L13.7289 28.9688ZM10.7557 26.7171C10.7557 26.9927 10.7442 27.2694 10.7638 27.5427C10.7695 27.6159 10.8711 27.7429 10.9299 27.7429C11.5229 27.7486 12.1217 27.7772 12.709 27.712C13.3136 27.6457 13.6112 27.21 13.572 26.6038C13.5397 26.1155 13.1405 25.7484 12.5752 25.7278C12.049 25.7084 11.5206 25.7221 10.9945 25.7141C10.8226 25.7118 10.7499 25.777 10.7545 25.9474C10.7603 26.2036 10.7557 26.4609 10.7568 26.7171H10.7557Z" fill="#B5B8BA"></path>
        <path id="Vector_4" d="M19.9741 16.9589C19.8876 16.8331 19.8264 16.7508 19.7722 16.6639C19.3096 15.9182 18.855 15.168 18.3843 14.4269C18.27 14.2463 18.2804 14.1136 18.3912 13.9375C18.8711 13.1804 19.3326 12.4107 19.8114 11.6537C19.9118 11.4935 19.9153 11.3758 19.8126 11.2156C19.343 10.4746 18.8977 9.7175 18.42 8.981C18.2712 8.75114 18.2839 8.58874 18.4269 8.36688C18.8965 7.6361 19.3373 6.88931 19.8022 6.15625C19.9084 5.98814 19.9141 5.86348 19.8057 5.69308C19.3303 4.94401 18.8746 4.18236 18.3993 3.43328C18.2827 3.24916 18.2666 3.11307 18.3912 2.91865C18.8596 2.18788 19.3061 1.44338 19.7618 0.704595C19.8195 0.610818 19.8853 0.522758 19.9695 0.400391C20.0445 0.505604 20.0964 0.569647 20.1403 0.639408C20.6168 1.41021 21.0863 2.18559 21.5698 2.95182C21.6724 3.11421 21.6644 3.23429 21.5652 3.39097C21.0829 4.15834 20.6145 4.93372 20.131 5.69995C20.0307 5.85891 20.0284 5.97899 20.1287 6.1391C20.6075 6.89732 21.0679 7.66698 21.549 8.42292C21.6701 8.61276 21.6621 8.75228 21.5432 8.93869C21.0679 9.68776 20.6133 10.4494 20.1391 11.1996C20.033 11.3677 20.0284 11.4924 20.1357 11.6628C20.6098 12.4119 21.0656 13.1735 21.5409 13.9226C21.6574 14.1056 21.6736 14.2451 21.5502 14.4372C21.0783 15.1772 20.6248 15.9285 20.1633 16.6753C20.1137 16.7554 20.0583 16.8308 19.9718 16.9589H19.9741Z" fill="#B5B8BA"></path>
        <path id="Vector_5" d="M5.87406 26.5999C5.87406 25.9057 5.87983 25.2104 5.8706 24.5162C5.86713 24.2886 5.9329 24.1891 6.18096 24.2017C6.55477 24.22 6.92974 24.2131 7.30356 24.204C7.48816 24.1994 7.55738 24.268 7.55738 24.4533C7.55161 25.8519 7.56546 27.2506 7.54123 28.6493C7.53546 29.0141 7.4547 29.388 7.34394 29.738C6.97589 30.9022 6.1175 31.5083 4.93375 31.6455C4.42725 31.7039 3.89422 31.6856 3.39233 31.5987C2.14282 31.3825 1.31558 30.4939 1.13559 29.2519C1.09521 28.9706 1.07445 28.6847 1.07329 28.3999C1.06637 27.1157 1.07906 25.8314 1.06406 24.5471C1.0606 24.2657 1.14944 24.1834 1.42288 24.2017C1.74824 24.2234 2.07706 24.2257 2.40126 24.2017C2.69316 24.18 2.75546 24.3012 2.75316 24.5631C2.74277 25.7993 2.74508 27.0367 2.752 28.273C2.75316 28.5097 2.76815 28.751 2.81661 28.9809C2.98621 29.7849 3.57463 30.2 4.43994 30.1474C5.24526 30.0982 5.80252 29.5939 5.84406 28.7968C5.88213 28.066 5.85214 27.3329 5.85214 26.5999C5.86021 26.5999 5.86713 26.5999 5.87521 26.5999H5.87406Z" fill="#B5B8BA"></path>
        <path id="Vector_6" d="M6.68524 33.0029C7.15827 33.0029 7.57824 32.9892 7.9959 33.0155C8.07089 33.02 8.17012 33.1733 8.20242 33.2751C8.53816 34.3363 8.86237 35.3999 9.19119 36.4635C9.22003 36.5584 9.2558 36.651 9.35733 36.7471C9.47386 36.4109 9.595 36.0747 9.70691 35.7373C9.98035 34.9162 10.2561 34.095 10.5145 33.2693C10.5838 33.0475 10.6957 32.9743 10.9253 32.9732C11.7779 32.9697 11.7767 32.9629 12.0398 33.76C12.3375 34.6634 12.6374 35.5657 12.9374 36.4692C12.9686 36.563 13.0066 36.6556 13.1059 36.746C13.1393 36.6522 13.1751 36.5584 13.2039 36.4635C13.5189 35.4457 13.8327 34.4278 14.1466 33.41C14.2723 33.0017 14.2712 33.0006 14.7165 33.0006C15.0199 33.0006 15.3245 33.0006 15.6718 33.0006C15.6268 33.1596 15.6026 33.2682 15.5657 33.3734C14.9703 35.1106 14.3669 36.8455 13.782 38.5861C13.692 38.8525 13.5778 38.9646 13.2812 38.9577C12.5048 38.9394 12.5036 38.9543 12.244 38.2132C11.9302 37.3143 11.6175 36.4155 11.3037 35.5177C11.2726 35.4297 11.2356 35.3439 11.1814 35.2055C11.1295 35.3359 11.0926 35.4182 11.0626 35.5028C10.6957 36.5538 10.3242 37.6037 9.96651 38.6581C9.89382 38.872 9.78998 38.9554 9.55693 38.9554C8.71469 38.9554 8.71353 38.9635 8.44125 38.1686C7.89091 36.5664 7.34057 34.9642 6.79138 33.362C6.75792 33.2648 6.73254 33.1653 6.68408 33.004L6.68524 33.0029Z" fill="#B5B8BA"></path>
        <path id="Vector_7" d="M31.3306 31.5906C31.0076 31.5906 30.7537 31.5963 30.4999 31.5906C29.3635 31.5632 29.6877 31.7885 29.2446 30.7558C29.1696 30.5808 29.09 30.407 29.0312 30.2263C28.9758 30.0559 28.8812 29.9884 28.6966 29.9895C27.8232 29.9976 26.9487 29.9964 26.0753 29.9895C25.9057 29.9884 25.8134 30.0479 25.7522 30.2045C25.6034 30.5865 25.4338 30.9593 25.2849 31.3413C25.218 31.514 25.1246 31.5986 24.9261 31.5941C24.4692 31.5815 24.0124 31.5906 23.5059 31.5906C23.5497 31.4465 23.5682 31.3573 23.6028 31.2738C24.58 28.998 25.5595 26.7234 26.5322 24.4453C26.6071 24.2714 26.6994 24.1937 26.8944 24.2017C27.2198 24.2154 27.5486 24.22 27.8728 24.2005C28.1059 24.1868 28.2143 24.2817 28.3009 24.4853C28.9839 26.1001 29.675 27.7103 30.3661 29.3217C30.6361 29.9518 30.9106 30.5808 31.1829 31.2109C31.2233 31.3059 31.2579 31.4031 31.3306 31.5918V31.5906ZM28.3112 28.4891C28.0043 27.7389 27.7147 27.031 27.3894 26.2373C27.0571 27.0344 26.7606 27.7469 26.4502 28.4891H28.3101H28.3112Z" fill="#B5B8BA"></path>
        <path id="Vector_8" d="M25.8996 36.8166C26.3761 37.5108 26.8388 38.1832 27.3003 38.8557C27.291 38.8877 27.2818 38.9186 27.2714 38.9506C27.0303 38.9506 26.788 38.954 26.5469 38.9506C25.602 38.9334 25.8892 39.0787 25.3608 38.325C25.1197 37.9808 24.867 37.6434 24.6524 37.2843C24.5163 37.0568 24.3386 37.0213 24.1032 37.0259C23.5079 37.0362 23.5079 37.0293 23.5079 37.6103C23.5079 37.9717 23.501 38.333 23.5102 38.6956C23.5148 38.8808 23.4364 38.954 23.2552 38.9506C22.9864 38.946 22.7176 38.9403 22.4487 38.9529C22.1949 38.9643 22.1488 38.8362 22.1499 38.6189C22.1557 37.1345 22.1534 35.6501 22.1534 34.1657C22.1534 33.8512 22.1442 33.5367 22.1626 33.2245C22.1672 33.149 22.2653 33.0152 22.3195 33.0152C23.3648 33.0175 24.4159 32.9706 25.452 33.0678C26.4246 33.1593 26.9784 33.7585 27.1122 34.622C27.2553 35.5426 26.8849 36.2711 26.0392 36.7308C26.0069 36.7491 25.9758 36.7697 25.8996 36.8177V36.8166ZM24.3328 34.2297C24.3328 34.2297 24.3328 34.224 24.3328 34.2206C24.1321 34.2206 23.9302 34.2251 23.7294 34.2194C23.576 34.2148 23.5021 34.2675 23.5056 34.4321C23.5125 34.821 23.5114 35.2098 23.5056 35.5998C23.5033 35.7519 23.5529 35.8308 23.7167 35.8274C24.1471 35.8193 24.5786 35.8342 25.0078 35.8079C25.4785 35.7793 25.7519 35.4614 25.7462 34.9971C25.7404 34.5488 25.4693 34.2663 24.9916 34.232C24.7724 34.216 24.552 34.2297 24.3317 34.2297H24.3328Z" fill="#B5B8BA"></path>
        <path id="Vector_9" d="M29.6736 32.9601C30.2459 33.0047 30.832 32.9841 31.387 33.1054C32.933 33.4416 33.8052 34.6447 33.7129 36.2172C33.6322 37.5952 32.5246 38.7537 31.057 38.8933C30.1905 38.9756 29.3125 38.9321 28.4391 38.947C28.2672 38.9493 28.2061 38.8647 28.2061 38.6988C28.2084 36.8805 28.2095 35.0633 28.2061 33.2449C28.2061 33.0596 28.2776 32.9933 28.4622 32.9967C28.8648 33.0047 29.2687 32.999 29.6713 32.999C29.6713 32.9853 29.6736 32.9716 29.6748 32.959L29.6736 32.9601ZM29.5629 35.9587C29.5629 36.4631 29.5663 36.9662 29.5606 37.4706C29.5583 37.6387 29.6194 37.7142 29.7948 37.7085C30.1201 37.6982 30.449 37.721 30.772 37.6913C31.6639 37.6112 32.2488 36.9857 32.2973 36.0857C32.348 35.1627 31.845 34.4411 30.9808 34.2776C30.6001 34.2055 30.1986 34.2456 29.8063 34.2238C29.6148 34.2135 29.5559 34.2936 29.5594 34.4743C29.5675 34.9683 29.5617 35.4635 29.5629 35.9576V35.9587Z" fill="#B5B8BA"></path>
        <path id="Vector_10" d="M28.2178 5.90234C28.309 6.03729 28.369 6.12078 28.4232 6.20769C28.8697 6.92932 29.3058 7.65895 29.765 8.37143C29.9115 8.59901 29.9011 8.76598 29.7581 8.98899C29.2896 9.71976 28.8466 10.4665 28.3828 11.1996C28.2767 11.3666 28.2697 11.4878 28.3793 11.6593C28.8605 12.4164 29.3185 13.1872 29.7985 13.9443C29.9127 14.125 29.9069 14.2565 29.795 14.4326C29.3208 15.1829 28.8616 15.9411 28.3955 16.6959C28.347 16.7736 28.2882 16.8445 28.2155 16.9429C28.1474 16.8583 28.0955 16.8057 28.0574 16.745C27.5763 15.9662 27.101 15.1829 26.6141 14.4075C26.5137 14.2485 26.5126 14.125 26.6118 13.966C27.0779 13.2227 27.5267 12.4679 27.9998 11.7291C28.1347 11.5175 28.1497 11.362 28.0078 11.1424C27.5417 10.4219 27.1091 9.67973 26.6464 8.95696C26.5126 8.74768 26.5229 8.59215 26.6522 8.38858C27.1229 7.64751 27.5763 6.89615 28.0367 6.15051C28.0805 6.07961 28.1336 6.01556 28.2167 5.90234H28.2178Z" fill="#B5B8BA"></path>
        <path id="Vector_11" d="M7.62196 11.4242C7.6958 11.5282 7.75349 11.6014 7.8031 11.6803C8.27499 12.442 8.73995 13.2082 9.21876 13.9664C9.32029 14.1265 9.31798 14.2466 9.21876 14.4056C8.73533 15.1718 8.27037 15.9495 7.78464 16.7134C7.67503 16.885 7.68311 17.005 7.78926 17.1709C8.27383 17.936 8.74918 18.7079 9.21183 19.4856C9.27067 19.5851 9.28913 19.7715 9.23375 19.8641C8.75264 20.6761 8.25191 21.4766 7.75464 22.2783C7.72118 22.3321 7.67157 22.3755 7.61619 22.4384C7.56197 22.3732 7.51466 22.3286 7.4812 22.2749C6.99547 21.4881 6.51436 20.6978 6.02286 19.9144C5.92364 19.7555 5.92133 19.6365 6.02286 19.4753C6.5109 18.701 6.98163 17.9154 7.46851 17.1411C7.56312 16.9902 7.55851 16.8781 7.46621 16.7306C6.98048 15.9552 6.50628 15.1718 6.02286 14.3942C5.94094 14.2626 5.90287 14.1574 5.99748 14.0065C6.50974 13.1911 7.01163 12.3688 7.51697 11.55C7.53658 11.5191 7.56427 11.4928 7.62427 11.4219L7.62196 11.4242Z" fill="#B5B8BA"></path>
        <path id="Vector_12" d="M7.26203 38.938C6.79476 38.938 6.38634 38.946 5.97791 38.9288C5.91214 38.9265 5.82792 38.8202 5.79215 38.7435C5.66063 38.4588 5.53833 38.1683 5.42641 37.8744C5.36411 37.712 5.27527 37.6319 5.08952 37.6342C4.42726 37.6422 3.76501 37.6411 3.10276 37.6342C2.93546 37.6331 2.83624 37.6914 2.77509 37.8481C2.65856 38.15 2.53511 38.4508 2.39781 38.7435C2.35974 38.8247 2.26167 38.93 2.18668 38.9334C1.80594 38.9528 1.42289 38.9425 0.990234 38.9425C1.02946 38.8076 1.04677 38.7104 1.08484 38.6212C1.84978 36.8348 2.61933 35.0508 3.38081 33.2622C3.46273 33.0689 3.56656 32.9774 3.78578 32.9957C4.09037 33.0197 4.46534 32.9145 4.6834 33.0563C4.90146 33.197 4.97183 33.5709 5.09183 33.8488C5.76908 35.4145 6.44172 36.9812 7.11435 38.548C7.15935 38.6521 7.19396 38.7596 7.26203 38.938ZM4.83454 36.4083C4.58879 35.8227 4.35804 35.2749 4.12844 34.7271C4.10421 34.7306 4.07998 34.734 4.05576 34.7374C3.83077 35.2818 3.60579 35.8262 3.36466 36.4083H4.83569H4.83454Z" fill="#B5B8BA"></path>
        <path id="Vector_13" d="M21.3978 38.9424C20.9329 38.9424 20.5313 38.9526 20.1333 38.9332C20.0595 38.9298 19.9649 38.8188 19.9268 38.7365C19.7929 38.4529 19.673 38.1613 19.5622 37.8685C19.4999 37.7027 19.403 37.6329 19.2207 37.6352C18.5584 37.6432 17.8973 37.6421 17.2351 37.6352C17.0666 37.634 16.972 37.6924 16.912 37.8502C16.8013 38.1441 16.6778 38.4334 16.5474 38.7193C16.5117 38.7994 16.439 38.9206 16.379 38.9241C15.9729 38.9424 15.5656 38.9332 15.1099 38.9332C15.1618 38.7857 15.1895 38.6885 15.2287 38.5958C15.9959 36.8118 16.7667 35.03 17.527 33.2437C17.6077 33.0538 17.7116 32.9829 17.9135 32.9967C18.2181 33.0172 18.5919 32.9132 18.8123 33.0527C19.0303 33.1911 19.1076 33.5627 19.2265 33.8395C19.906 35.412 20.5798 36.9879 21.2548 38.5627C21.2986 38.6656 21.3344 38.7708 21.399 38.9424H21.3978ZM18.9703 36.4161C18.72 35.8157 18.4915 35.2713 18.2308 34.6469C17.9677 35.2793 17.7381 35.8306 17.4935 36.4161H18.9703Z" fill="#B5B8BA"></path>
        <path id="Vector_14" d="M38.1643 34.6275C37.6832 34.4537 37.2609 34.273 36.8225 34.1564C36.624 34.1038 36.3725 34.1312 36.1798 34.2078C36.0402 34.2627 35.8833 34.4537 35.8718 34.5944C35.8602 34.7339 35.9848 34.9523 36.1141 35.0221C36.3794 35.1662 36.6863 35.2337 36.9759 35.3331C37.329 35.4544 37.6901 35.555 38.0327 35.7002C38.6569 35.9656 38.9881 36.4516 38.9915 37.1286C38.995 37.8182 38.7181 38.3672 38.0904 38.7045C37.4801 39.0328 36.8248 39.0614 36.1579 38.9516C35.5303 38.8486 34.9695 38.5913 34.4607 38.2139C34.3073 38.0996 34.2669 38.0024 34.4111 37.848C34.613 37.6318 34.763 37.2887 35.0041 37.2133C35.1934 37.1538 35.4749 37.45 35.7345 37.5312C36.1129 37.649 36.5063 37.7348 36.8986 37.7942C37.0463 37.8171 37.2251 37.7553 37.3659 37.6856C37.7374 37.5037 37.7547 37.0635 37.3878 36.877C37.1178 36.7398 36.8144 36.6678 36.5248 36.5705C36.1706 36.4516 35.806 36.359 35.4633 36.216C34.8495 35.9599 34.5161 35.4921 34.4976 34.8219C34.478 34.1255 34.7515 33.5788 35.3745 33.2357C36.1117 32.8298 36.8917 32.8606 37.6624 33.0974C38.0051 33.2026 38.3223 33.3947 38.6385 33.5708C38.6985 33.604 38.7458 33.7801 38.7112 33.8373C38.5392 34.1209 38.3362 34.3862 38.1666 34.6275H38.1643Z" fill="#B5B8BA"></path>
        <path id="Vector_15" d="M16.2071 43.0634C16.2163 42.4321 16.4425 41.5824 17.1462 40.9259C18.0889 40.0465 19.478 40.0876 20.3779 41.006C21.5097 42.1587 21.5109 44.5146 20.3814 45.6697C19.3038 46.771 17.5824 46.604 16.739 45.3106C16.3525 44.717 16.2036 44.056 16.2071 43.0634ZM16.9432 43.2692C16.9455 44.0126 17.1474 44.6599 17.4843 45.0967C18.1489 45.9556 19.268 45.9636 19.9429 45.115C20.6606 44.2116 20.6513 42.4778 19.9233 41.5778C19.2172 40.7052 18.0485 40.7487 17.4139 41.6727C17.0666 42.1793 16.9605 42.7546 16.942 43.2692H16.9432Z" fill="#B5B8BA"></path>
        <path id="Vector_16" d="M11.7199 11.4619C11.5503 11.184 11.413 10.9575 11.2746 10.7322C10.895 10.117 10.5073 9.50513 10.1393 8.88186C10.0827 8.78694 10.0585 8.61082 10.1093 8.52505C10.61 7.6822 11.1303 6.85078 11.6461 6.01708C11.6599 5.99421 11.6876 5.97934 11.7407 5.93359C11.7984 6.00679 11.8618 6.07083 11.9068 6.14516C12.3775 6.90567 12.8425 7.67076 13.319 8.42784C13.4298 8.60396 13.4321 8.74119 13.319 8.92074C12.8414 9.67782 12.3775 10.4429 11.908 11.2046C11.8641 11.2743 11.8099 11.3384 11.7188 11.4607L11.7199 11.4619Z" fill="#B5B8BA"></path>
        <path id="Vector_17" d="M32.347 16.9703C32.2559 16.8468 32.1947 16.777 32.1474 16.6992C31.6721 15.9296 31.1933 15.1611 30.7306 14.3845C30.6752 14.2908 30.6545 14.1158 30.7052 14.03C31.2013 13.1952 31.7171 12.3718 32.227 11.5461C32.2466 11.514 32.2662 11.4797 32.302 11.418C32.3805 11.506 32.4358 11.5529 32.4728 11.6112C32.9585 12.3969 33.4465 13.1814 33.9207 13.974C33.9773 14.0689 34.0084 14.2427 33.9588 14.3262C33.4638 15.1611 32.9493 15.9856 32.4393 16.8124C32.4151 16.8525 32.3909 16.8936 32.3459 16.9691L32.347 16.9703Z" fill="#B5B8BA"></path>
        <path id="Vector_18" d="M15.8541 16.9448C15.7837 16.851 15.7272 16.7881 15.6834 16.7184C15.2023 15.9407 14.7188 15.1642 14.2493 14.3808C14.1962 14.2927 14.1708 14.1292 14.2169 14.0514C14.7258 13.2017 15.2507 12.3623 15.7734 11.5206C15.7872 11.4989 15.8172 11.4863 15.861 11.4531C15.9083 11.5092 15.9626 11.5583 15.9995 11.6178C16.4806 12.3955 16.9548 13.1766 17.4405 13.9508C17.5444 14.1155 17.5536 14.2447 17.4463 14.414C16.964 15.1791 16.4956 15.9533 16.0203 16.7229C15.9776 16.7927 15.9222 16.8545 15.8541 16.9437V16.9448Z" fill="#B5B8BA"></path>
        <path id="Vector_19" d="M15.8806 16.9375C16.1033 17.3 16.3052 17.6305 16.5094 17.961C16.8244 18.4711 17.1475 18.9777 17.4486 19.4958C17.504 19.5907 17.5259 19.7645 17.4751 19.8503C16.9744 20.6932 16.4552 21.5246 15.9395 22.3594C15.9256 22.3823 15.898 22.3972 15.8472 22.4406C15.7895 22.3651 15.7272 22.3 15.681 22.2245C15.2045 21.456 14.7257 20.6874 14.2619 19.9121C14.2042 19.816 14.1708 19.641 14.2204 19.5575C14.7223 18.7147 15.2426 17.8833 15.7595 17.0507C15.778 17.021 15.8126 17.0004 15.8806 16.9375Z" fill="#B5B8BA"></path>
        <path id="Vector_20" d="M32.3194 22.4478C32.2525 22.3552 32.1936 22.2843 32.1463 22.2065C31.6802 21.4529 31.221 20.6969 30.7491 19.9467C30.6395 19.7729 30.6268 19.6379 30.7422 19.4561C31.2164 18.7082 31.6744 17.9499 32.1394 17.1963C32.1879 17.1174 32.2455 17.0442 32.3228 16.9355C32.3944 17.0236 32.4521 17.0808 32.4936 17.1483C32.9747 17.9259 33.4581 18.7013 33.9243 19.487C33.9831 19.5853 33.9981 19.7717 33.9427 19.8655C33.4581 20.6843 32.9539 21.4929 32.4532 22.3026C32.4255 22.3472 32.3805 22.3826 32.3205 22.4467L32.3194 22.4478Z" fill="#B5B8BA"></path>
        <path id="Vector_21" d="M28.2245 22.4756C28.1414 22.3658 28.0918 22.3098 28.0526 22.2469C27.5818 21.4852 27.1203 20.719 26.6404 19.9642C26.5146 19.7664 26.5215 19.6177 26.6461 19.4221C27.1203 18.6742 27.5772 17.916 28.0422 17.1623C28.0849 17.0926 28.1403 17.0308 28.2129 16.9336C28.2879 17.0354 28.3479 17.1063 28.3952 17.184C28.866 17.9457 29.3402 18.7039 29.797 19.4736C29.8582 19.5754 29.887 19.7629 29.834 19.8533C29.339 20.6881 28.8233 21.5115 28.3122 22.3372C28.2926 22.3692 28.2718 22.4013 28.2233 22.4756H28.2245Z" fill="#B5B8BA"></path>
        <path id="Vector_22" d="M24.0723 22.4558C23.9834 22.3151 23.9073 22.1985 23.8346 22.0795C23.3892 21.359 22.9404 20.6397 22.5055 19.9124C22.4478 19.8163 22.4132 19.6425 22.4628 19.559C22.9635 18.7161 23.4838 17.8847 23.9984 17.0499C24.0192 17.0167 24.033 16.9801 24.0699 16.9023C24.1703 17.043 24.2338 17.1219 24.2857 17.2065C24.7564 17.9671 25.2306 18.7264 25.6898 19.4949C25.7463 19.5887 25.7683 19.7637 25.7175 19.8483C25.226 20.674 24.716 21.4894 24.2084 22.3071C24.1807 22.3517 24.1357 22.386 24.0711 22.4546L24.0723 22.4558Z" fill="#B5B8BA"></path>
        <path id="Vector_23" d="M11.713 22.4644C11.5757 22.2426 11.4615 22.0585 11.3473 21.8732C10.9516 21.2316 10.5604 20.5878 10.1578 19.9508C10.0493 19.7781 10.0309 19.642 10.1474 19.4579C10.6274 18.7008 11.0912 17.9334 11.5619 17.1706C11.6057 17.0997 11.66 17.0368 11.7269 16.9453C11.7926 17.0219 11.848 17.0723 11.8861 17.1329C12.373 17.9197 12.8633 18.7042 13.3364 19.499C13.3917 19.5928 13.4091 19.7701 13.3571 19.857C12.8645 20.685 12.3534 21.5015 11.8469 22.3203C11.8238 22.3581 11.7846 22.3878 11.713 22.4644Z" fill="#B5B8BA"></path>
        <path id="Vector_24" d="M19.9763 16.9551C20.0236 17.0111 20.0651 17.0489 20.0928 17.0946C20.5947 17.9054 21.0977 18.7163 21.5904 19.5328C21.6354 19.6071 21.6561 19.7478 21.6158 19.8153C21.092 20.689 20.5555 21.5559 19.9959 22.4673C19.9197 22.3747 19.8621 22.3187 19.8205 22.2535C19.3325 21.4667 18.8433 20.6821 18.3668 19.8885C18.3149 19.8016 18.2941 19.6369 18.3414 19.5568C18.841 18.722 19.3567 17.8963 19.869 17.0694C19.8921 17.0317 19.9301 17.0031 19.9763 16.9551Z" fill="#B5B8BA"></path>
        <path id="Vector_25" d="M22.5976 41.9268C22.5619 41.9199 22.5411 41.9199 22.5249 41.9119C22.0254 41.6294 22.0208 41.5803 22.3934 41.148C22.9899 40.4561 23.7456 40.1976 24.6375 40.3589C25.8708 40.5819 26.4742 41.8524 25.8339 42.9229C25.6078 43.3003 25.2859 43.6319 24.9651 43.9407C24.4494 44.437 23.8979 44.8968 23.3614 45.3725C23.291 45.4354 23.2241 45.5017 23.0984 45.6184C23.2553 45.6264 23.3499 45.6356 23.4456 45.6356C24.2325 45.6367 25.0194 45.6458 25.8062 45.631C26.0785 45.6264 26.1477 45.7305 26.15 45.9832C26.1523 46.2451 26.0416 46.3011 25.8028 46.2989C24.6421 46.2897 23.4814 46.2989 22.3207 46.2897C22.2019 46.2897 21.985 46.2245 21.9838 46.1845C21.9781 46.0084 21.9792 45.7842 22.0807 45.663C22.293 45.4103 22.5711 45.2113 22.8226 44.9905C23.3533 44.5228 23.8921 44.0642 24.4113 43.585C24.6548 43.3597 24.8878 43.1116 25.077 42.8405C25.4347 42.3305 25.4105 41.7186 25.0586 41.3344C24.6848 40.9261 23.9948 40.8163 23.4699 41.1342C23.1976 41.2989 22.9818 41.554 22.7418 41.7701C22.6865 41.8193 22.6403 41.8787 22.5965 41.9268H22.5976Z" fill="#B5B8BA"></path>
        <path id="Vector_26" d="M12.2913 45.6369C12.807 45.6369 13.3216 45.6369 13.8373 45.6369C14.1834 45.6369 14.5284 45.6369 14.8745 45.6369C15.2506 45.6369 15.3706 45.7902 15.2541 46.1481C15.2333 46.2122 15.1203 46.2877 15.0499 46.2877C13.8027 46.2957 12.5543 46.2957 11.306 46.2877C11.2379 46.2877 11.1133 46.2145 11.1133 46.1756C11.1133 46.012 11.1225 45.8359 11.1871 45.6895C11.2367 45.5775 11.3717 45.502 11.4721 45.4139C12.169 44.801 12.8739 44.1994 13.5592 43.5738C13.8108 43.344 14.0427 43.0798 14.2296 42.7973C14.5618 42.2976 14.5272 41.7155 14.1903 41.3358C13.8511 40.9538 13.2223 40.8143 12.7078 41.0876C12.3974 41.2523 12.1205 41.513 11.8863 41.7795C11.6579 42.0391 11.5471 41.8184 11.389 41.7338C11.194 41.6297 11.2425 41.5107 11.3475 41.3644C11.8736 40.6336 12.5739 40.2619 13.4889 40.3157C14.8999 40.398 15.6614 41.7806 14.9264 42.9792C14.6968 43.3543 14.3692 43.6813 14.045 43.9867C13.4704 44.5299 12.8635 45.0411 12.2705 45.566C12.2774 45.5889 12.2843 45.6118 12.2913 45.6347V45.6369Z" fill="#B5B8BA"></path>
        <path id="Vector_27" d="M28.1451 41.1105C27.814 41.2123 27.5474 41.2832 27.2878 41.3758C27.0917 41.4456 27.0006 41.3793 26.959 41.1929C26.9233 41.0339 26.8102 40.8681 27.079 40.7857C27.4632 40.6679 27.8405 40.5238 28.2224 40.3992C28.3205 40.3672 28.4289 40.3649 28.5339 40.3511C28.7808 40.3203 28.8685 40.4198 28.8673 40.6737C28.8581 42.197 28.8627 43.7191 28.8627 45.2424C28.8627 45.4609 28.8627 45.6804 28.8627 45.8989C28.8627 46.2946 28.8569 46.2774 28.4958 46.3026C28.1774 46.3243 28.1393 46.1745 28.1405 45.9126C28.1497 44.4465 28.1451 42.9815 28.1451 41.5154C28.1451 41.4033 28.1451 41.2912 28.1451 41.1117V41.1105Z" fill="#B5B8BA"></path>
      </g>
    </g>
  </g>
  <defs>
    <clipPath id="clip0_519_3760">
      <rect width="38" height="46" fill="white" transform="translate(0.990234 0.398438)"></rect>
    </clipPath>
  </defs>
</svg>
