<?xml version="1.0" encoding="UTF-8"?>
<svg xmlns="http://www.w3.org/2000/svg" width="247" height="53" viewBox="0 0 247 53" fill="none">
  <g id="Group">
    <g id="Group 4946">
      <path id="path54" d="M68.7538 49.922H70.1315L69.4255 47.9186L68.7538 49.922ZM70.7639 51.707L70.4526 50.8243H68.44L68.1459 51.707H67.1016L68.8175 46.8054H70.0138L71.742 51.707H70.7639Z" fill="#028FBE"></path>
      <g id="g56">
        <path id="path58" d="M76.4024 46.8074V47.7318H74.5835V51.709H73.6177V46.8074H76.4024Z" fill="#028FBE"></path>
      </g>
      <g id="g60">
        <path id="path62" d="M79.3072 50.7846H81.3712V51.709H78.3413V46.8074H81.3369V47.7318H79.3072V48.7764H81.1628V49.6861H79.3072V50.7846Z" fill="#028FBE"></path>
      </g>
      <g id="g64">
        <path id="path66" d="M86.2364 46.8074H87.1949V51.709H86.2364V49.6762H84.4175V51.709H83.4517V46.8074H84.4175V48.7543H86.2364V46.8074Z" fill="#028FBE"></path>
      </g>
      <g id="g68">
        <path id="path70" d="M96.9254 51.709C96.1875 51.709 95.5796 51.4638 95.0991 50.9734C94.6187 50.483 94.3784 49.8798 94.3784 49.1613C94.3784 48.438 94.6187 47.8323 95.0991 47.3444C95.5796 46.8564 96.1875 46.6137 96.9254 46.6137C97.3691 46.6137 97.7785 46.7166 98.1535 46.9226C98.5286 47.131 98.8228 47.413 99.0311 47.7686L98.2001 48.2516C98.0776 48.0309 97.906 47.8593 97.6804 47.7367C97.4574 47.6116 97.2049 47.5503 96.9254 47.5503C96.4498 47.5503 96.065 47.6999 95.7733 47.9991C95.4815 48.2982 95.3369 48.6832 95.3369 49.1613C95.3369 49.6321 95.4815 50.0171 95.7733 50.3162C96.065 50.6154 96.4498 50.7625 96.9254 50.7625C97.2049 50.7625 97.4598 50.7012 97.6853 50.5786C97.9109 50.4535 98.0825 50.2844 98.2001 50.071L99.0311 50.5541C98.8228 50.9096 98.5311 51.1892 98.156 51.3976C97.7834 51.606 97.374 51.709 96.9254 51.709Z" fill="#028FBE"></path>
      </g>
      <g id="g72">
        <path id="path74" d="M104.247 46.8074V47.7318H102.925V51.709H101.957V47.7318H100.643V46.8074H104.247Z" fill="#028FBE"></path>
      </g>
      <g id="g72_2">
        <path id="path74_2" d="M92.732 46.8406V47.765H91.4107V51.7422H90.4424V47.765H89.1284V46.8406H92.732Z" fill="#028FBE"></path>
      </g>
      <g id="g76">
        <path id="path78" d="M108.264 50.8047C108.426 50.8047 108.563 50.7507 108.669 50.6404C108.777 50.5301 108.831 50.3927 108.831 50.2236C108.831 50.0593 108.777 49.9244 108.669 49.8141C108.563 49.7062 108.426 49.6498 108.264 49.6498H107.151V50.8047H108.264ZM108.117 47.7102H107.151V48.7891H108.117C108.267 48.7891 108.392 48.7376 108.492 48.6346C108.593 48.5316 108.642 48.4041 108.642 48.2497C108.642 48.0952 108.593 47.9677 108.495 47.8647C108.397 47.7617 108.272 47.7102 108.117 47.7102ZM109.147 49.1667C109.576 49.4144 109.789 49.7871 109.789 50.2873C109.789 50.7017 109.642 51.0425 109.348 51.3073C109.054 51.5746 108.693 51.707 108.264 51.707H106.186V46.8079H108.117C108.536 46.8079 108.892 46.9378 109.179 47.1953C109.465 47.4552 109.608 47.7862 109.608 48.1859C109.608 48.593 109.453 48.9191 109.147 49.1667Z" fill="#028FBE"></path>
      </g>
      <g id="g80">
        <path id="path82" d="M113.009 50.4095C113.313 50.7086 113.688 50.8607 114.136 50.8607C114.582 50.8607 114.96 50.7086 115.262 50.4095C115.565 50.1079 115.717 49.7229 115.717 49.257C115.717 48.7911 115.565 48.4062 115.262 48.1021C114.96 47.7981 114.582 47.6485 114.136 47.6485C113.688 47.6485 113.313 47.7981 113.009 48.1021C112.705 48.4062 112.555 48.7911 112.555 49.257C112.555 49.7229 112.705 50.1079 113.009 50.4095ZM115.941 51.0666C115.448 51.5595 114.845 51.8047 114.136 51.8047C113.425 51.8047 112.825 51.5595 112.332 51.0666C111.842 50.5738 111.594 49.9706 111.594 49.257C111.594 48.5435 111.842 47.9403 112.332 47.4474C112.825 46.9546 113.425 46.7094 114.136 46.7094C114.845 46.7094 115.448 46.9546 115.941 47.4474C116.436 47.9403 116.683 48.5435 116.683 49.257C116.683 49.9706 116.436 50.5738 115.941 51.0666Z" fill="#028FBE"></path>
      </g>
      <g id="g84">
        <path id="path86" d="M124.696 46.8074H125.654V51.709H124.696V49.6762H122.877V51.709H121.911V46.8074H122.877V48.7543H124.696V46.8074Z" fill="#028FBE"></path>
      </g>
      <g id="g88">
        <path id="path90" d="M128.931 50.7846H130.995V51.709H127.965V46.8074H130.96V47.7318H128.931V48.7764H130.786V49.6861H128.931V50.7846Z" fill="#028FBE"></path>
      </g>
      <g id="g92">
        <path id="path94" d="M134.518 50.7678H136.156V47.6954H134.854V49.1225C134.854 49.8311 134.741 50.3804 134.518 50.7678ZM137.122 50.7678H137.646V52.6289H136.68V51.6922H133.972V52.6289H133.006V50.7678H133.484C133.754 50.3902 133.888 49.836 133.888 49.1078V46.7906H137.122V50.7678Z" fill="#028FBE"></path>
      </g>
      <g id="g96">
        <path id="path98" d="M141.486 50.8047C141.65 50.8047 141.782 50.7507 141.89 50.6404C141.998 50.5301 142.052 50.3927 142.052 50.2236C142.052 50.0593 141.998 49.9244 141.89 49.8141C141.782 49.7062 141.65 49.6498 141.486 49.6498H140.373V50.8047H141.486ZM141.338 47.7102H140.373V48.7891H141.338C141.488 48.7891 141.613 48.7376 141.713 48.6346C141.814 48.5316 141.863 48.4041 141.863 48.2497C141.863 48.0952 141.814 47.9677 141.716 47.8647C141.618 47.7617 141.493 47.7102 141.338 47.7102ZM142.366 49.1667C142.797 49.4144 143.01 49.7871 143.01 50.2873C143.01 50.7017 142.863 51.0425 142.569 51.3073C142.275 51.5746 141.915 51.707 141.486 51.707H139.407V46.8079H141.338C141.758 46.8079 142.111 46.9378 142.397 47.1953C142.684 47.4552 142.829 47.7862 142.829 48.1859C142.829 48.593 142.674 48.9191 142.366 49.1667Z" fill="#028FBE"></path>
      </g>
      <g id="g100">
        <path id="path102" d="M147.875 51.709V48.7371L145.784 51.709H145.042V46.8074H146.007V49.8038L148.106 46.8074H148.841V51.709H147.875Z" fill="#028FBE"></path>
      </g>
      <g id="g104">
        <path id="path106" d="M156.939 51.709H155.863L154.343 49.4727V51.709H153.377V49.4776L151.857 51.709H150.786L152.487 49.2104L150.857 46.8074H151.928L153.377 48.9921V46.8074H154.343V48.9946L155.792 46.8074H156.868L155.23 49.2104L156.939 51.709Z" fill="#028FBE"></path>
      </g>
      <g id="g108">
        <path id="path110" d="M161.711 51.709V48.7371L159.62 51.709H158.877V46.8074H159.843V49.8038L161.942 46.8074H162.677V51.709H161.711Z" fill="#028FBE"></path>
      </g>
      <g id="g112">
        <path id="path114" d="M169.781 46.8074V51.709H168.822V48.5287L167.44 50.8042L167.329 50.8066L165.954 48.541V51.709H164.986V46.8074H165.981L167.386 49.1221L168.783 46.8074H169.781Z" fill="#028FBE"></path>
      </g>
      <g id="g116">
        <path id="path118" d="M173.281 50.4095C173.582 50.7086 173.96 50.8607 174.406 50.8607C174.854 50.8607 175.232 50.7086 175.533 50.4095C175.837 50.1079 175.989 49.7229 175.989 49.257C175.989 48.7911 175.837 48.4062 175.533 48.1021C175.232 47.7981 174.854 47.6485 174.406 47.6485C173.96 47.6485 173.582 47.7981 173.281 48.1021C172.977 48.4062 172.825 48.7911 172.825 49.257C172.825 49.7229 172.977 50.1079 173.281 50.4095ZM176.213 51.0666C175.717 51.5595 175.117 51.8047 174.406 51.8047C173.697 51.8047 173.097 51.5595 172.604 51.0666C172.111 50.5738 171.866 49.9706 171.866 49.257C171.866 48.5435 172.111 47.9403 172.604 47.4474C173.097 46.9546 173.697 46.7094 174.406 46.7094C175.117 46.7094 175.717 46.9546 176.213 47.4474C176.708 47.9403 176.955 48.5435 176.955 49.257C176.955 49.9706 176.708 50.5738 176.213 51.0666Z" fill="#028FBE"></path>
      </g>
      <g id="g120">
        <path id="path122" d="M181.356 51.8047C180.618 51.8047 180.01 51.5595 179.53 51.0691C179.049 50.5787 178.809 49.9755 178.809 49.257C178.809 48.5337 179.049 47.928 179.53 47.4401C180.01 46.9521 180.618 46.7094 181.356 46.7094C181.8 46.7094 182.209 46.8123 182.584 47.0183C182.959 47.2267 183.253 47.5087 183.462 47.8643L182.631 48.3473C182.508 48.1266 182.337 47.955 182.114 47.8324C181.888 47.7073 181.636 47.646 181.356 47.646C180.881 47.646 180.496 47.7956 180.204 48.0948C179.912 48.3939 179.768 48.7789 179.768 49.257C179.768 49.7278 179.912 50.1128 180.204 50.4119C180.496 50.7111 180.881 50.8582 181.356 50.8582C181.636 50.8582 181.888 50.7969 182.116 50.6743C182.342 50.5492 182.513 50.3801 182.631 50.1667L183.462 50.6498C183.253 51.0053 182.962 51.2849 182.589 51.4933C182.214 51.7017 181.805 51.8047 181.356 51.8047Z" fill="#028FBE"></path>
      </g>
      <g id="g124">
        <path id="path126" d="M188.677 46.8074V47.7318H187.354V51.709H186.388V47.7318H185.071V46.8074H188.677Z" fill="#028FBE"></path>
      </g>
      <g id="g128">
        <path id="path130" d="M193.449 51.709V48.7371L191.358 51.709H190.615V46.8074H191.581V49.8038L193.679 46.8074H194.415V51.709H193.449Z" fill="#028FBE"></path>
      </g>
      <g id="Group 4973">
        <path id="Vector" d="M27.9394 48.0598H23.2715V6.34739L38.3607 10.6896V20.5953L42.1873 21.4637V7.59578L19.2007 0.621094V52.1306H27.9394" fill="#028FBE"></path>
        <path id="Vector_2" d="M56.2448 52.13H29.106V20.9746L56.2448 26.0224V52.13ZM33.2311 48.032H52.2283V30.1204L33.2311 26.4295V48.032Z" fill="#3ABBDB"></path>
        <path id="Vector_3" d="M13.1191 8.08398L17.6242 9.82087V52.1303H13.1191V8.08398Z" fill="#0D2F47"></path>
        <path id="Vector_4" d="M0.5 43.7441L5.00505 45.5082V52.13H0.5V43.7441Z" fill="#028FBE"></path>
        <path id="Vector_5" d="M6.93262 34.4625L11.4377 31.8301V52.1299H6.93262V34.4625Z" fill="#3ABBDB"></path>
      </g>
    </g>
    <path id="Vector_6" d="M68.9581 36.9816C68.1089 36.4183 67.4123 35.6536 66.9304 34.7557C66.4485 33.8578 66.1963 32.8546 66.1963 31.8355C66.1963 30.8165 66.4485 29.8133 66.9304 28.9153C67.4123 28.0174 68.1089 27.2527 68.9581 26.6894C71.7768 25.1962 74.9652 24.5442 78.1438 24.8111C81.3309 24.5422 84.5281 25.1941 87.3553 26.6894C88.2045 27.2527 88.9012 28.0174 89.383 28.9153C89.8649 29.8133 90.1171 30.8165 90.1171 31.8355C90.1171 32.8546 89.8649 33.8578 89.383 34.7557C88.9012 35.6536 88.2045 36.4183 87.3553 36.9816C84.5281 38.4769 81.3309 39.1289 78.1438 38.8599C74.9652 39.1268 71.7768 38.4748 68.9581 36.9816ZM72.7404 33.5337C73.1989 34.0676 73.8247 34.4304 74.5158 34.5629C75.7056 34.8327 76.9243 34.9537 78.1438 34.9232C79.3806 34.9571 80.6167 34.8361 81.8233 34.5629C82.5144 34.4304 83.1402 34.0676 83.5987 33.5337C83.9546 33.0604 84.1364 32.4788 84.1133 31.887C84.132 31.2997 83.9605 30.7222 83.6244 30.2402C83.1461 29.7177 82.5163 29.3579 81.8233 29.211C80.6236 28.9507 79.3966 28.8383 78.1696 28.8765C76.9511 28.8397 75.7327 28.952 74.5416 29.211C73.8584 29.3644 73.2388 29.7236 72.7662 30.2402C72.4102 30.7136 72.2285 31.2952 72.2516 31.887C72.2431 32.485 72.4433 33.0673 72.8176 33.5337H72.7404Z" fill="#0D2F47"></path>
    <path id="Vector_7" d="M91.7798 25.1992H111.695V28.8787H97.5177V30.088H107.038C108.396 30.015 109.742 30.3852 110.872 31.143C111.342 31.5406 111.71 32.0443 111.948 32.6125C112.185 33.1806 112.283 33.797 112.235 34.4107C112.235 37.1896 110.486 38.5791 107.089 38.5791H91.7798V25.1992ZM105.263 35.0797C106.086 35.0797 106.498 34.7967 106.498 34.2306C106.508 34.1063 106.481 33.9818 106.422 33.8722C106.363 33.7625 106.273 33.6725 106.163 33.6131C105.887 33.4638 105.576 33.3926 105.263 33.4072H97.5434V35.0797H105.263Z" fill="#0D2F47"></path>
    <path id="Vector_8" d="M112.829 25.1992H121.731V29.1874H129.965C131.628 29.076 133.289 29.442 134.751 30.2424C135.323 30.646 135.778 31.1949 136.067 31.8327C136.357 32.4704 136.471 33.1738 136.398 33.8704C136.465 34.5664 136.349 35.268 136.06 35.9047C135.771 36.5415 135.319 37.0911 134.751 37.4984C133.292 38.3091 131.631 38.6842 129.965 38.5791H115.993V29.0588H112.829V25.1992ZM129.322 34.9253C130.222 34.9253 130.66 34.5651 130.66 33.8447C130.667 33.7036 130.645 33.5626 130.597 33.43C130.548 33.2974 130.473 33.1759 130.377 33.0727C130.07 32.8551 129.696 32.7547 129.322 32.7897H121.603V34.9253H129.322Z" fill="#0D2F47"></path>
    <path id="Vector_9" d="M137.967 25.1992H156.93V28.8272H143.705V30.1652H156.441V33.5616H143.833V34.9511H157.162V38.5791H137.967V25.1992Z" fill="#0D2F47"></path>
    <path id="Vector_10" d="M171.261 33.8447H164.829V38.5791H159.014V25.1992H164.752V30.1137H171.107L173.68 25.1992H180.164L176.33 31.7348L180.421 38.5791H173.912L171.261 33.8447Z" fill="#0D2F47"></path>
    <path id="Vector_11" d="M187.549 29.3161H180.447V25.1992H200.183V29.3161H193.055V38.5791H187.549V29.3161Z" fill="#0D2F47"></path>
    <path id="Vector_12" d="M217.809 38.5791V30.8599L207.234 38.5791H201.625V25.1992H207.234V32.764L217.809 25.1992H223.341V38.5791H217.809Z" fill="#0D2F47"></path>
    <path id="Vector_13" d="M225.709 25.1992H241.148C244.338 25.1992 245.934 26.3314 245.934 28.5956C245.946 29.2189 245.786 29.8335 245.47 30.371C245.119 30.872 244.626 31.2571 244.055 31.4775C244.748 31.6792 245.36 32.0932 245.805 32.6611C246.27 33.2647 246.515 34.009 246.5 34.7709C246.5 37.344 244.699 38.6048 241.071 38.6048H225.709V25.1992ZM238.961 30.3453C239.758 30.3453 240.17 30.0623 240.17 29.4962C240.17 28.9301 239.758 28.6471 238.961 28.6471H231.447V30.3453H238.961ZM239.115 35.337C240.067 35.337 240.53 35.0025 240.53 34.3593C240.53 33.716 240.067 33.4072 239.115 33.4072H231.396V35.337H239.115Z" fill="#0D2F47"></path>
  </g>
</svg>
